<?xml version="1.0" encoding="UTF-8"?>
<svg id="Layer_2" data-name="Layer 2" xmlns="http://www.w3.org/2000/svg" viewBox="0 0 745.98 967.31">
  <g id="Layer_2-2" data-name="Layer 2" fill="currentColor">
    <g id="Layer_1-2" data-name="Layer 1-2">
      <path class="path" d="m45.02,967.31c-.8,0-1.4-.6-1.4-1.4-.4-28.4,3.4-56.6,11.3-83.7,9-30.9,17.6-60.1,42-85.6,33.5-35,103.5-70.1,111.4-74h.1c6.8-3.4,12.5-7.9,16.8-13.4.7-.8,1.4-1.9,2.3-3-15.3-9.3-27.8-22.9-37-35.1-.5-.6-.3-1.5.3-2,.6-.5,1.5-.3,2,.3,9,12,21.3,25.4,36.3,34.5,2.7-4.3,5.3-10.1,4.5-16.1-.6-4.8-3-6.9-6.5-10.2-3.5-3.2-7.9-7.2-12.4-15.4-2-3.6-3.2-6.7-4.3-9.2-1.9-4.7-2.9-6.8-5.3-7.4-2.3-.6-4.2.7-7.7,3.2-1.6,1.1-3.3,2.4-5.4,3.6-14.4,8.4-30.1,6.7-41.6,5.4-12.7-1.4-21.8-2.4-30.3-9.9-1.3-1.1-12.7-11.6-14.1-26.7-.2-1.9-.1-3.4-.1-4.8,0-2.5.1-4.5-1-7.6-1.5-4.5-3.8-7.2-6.8-10.5-.9-1-1.8-2-2.7-3.2-3.4-4-6.2-9.1-12-19.3-5.4-9.6-7.4-18.2-8.9-25.1-1.6-7.3-2.7-12.1-6.8-13.6-.9-.3-1.5-.4-2.2-.4-1.1-.1-2.4-.2-4.7-1-2.7-1-9.5-4.1-13.2-10.8-4.1-7.5-2-15.6-1-19.5,1.2-4.5,2.9-7.6,4.5-10.2,1.9-3.3,3.4-5.8,3.3-10.2,0-1.7-.3-2.3-.7-3.4-.4-1-.9-2.3-1.3-4.8-1.4-7.8.1-13.2,1.3-17.9,1.2-4.4,2.2-8.2.7-13.1-.1-.2-.1-.5-.2-.7-.6-1.8-1.5-4.7-1.9-8.8-.2-2.3-.1-3.6,0-4.7.1-.8.1-1.4,0-2.2-.4-3.7-3.4-6-7.8-9.5-1.3-1-2.8-2.2-4.4-3.5-1.8-1.5-3.4-2.9-4.9-4.1-4.8.6-9.6,1.5-14.4,2.6-.8.2-1.5-.3-1.7-1.1s.3-1.5,1.1-1.7c4.1-.9,8.2-1.7,12.2-2.3-3.8-3.5-6.1-6.4-7.5-10.2-1.9-5.2-1-9.4-.2-13.2.7-3.5,1.3-6.3-.7-9-1.4-1.9-3-2.4-5.1-3s-4.7-1.4-7.6-3.7c-7.4-5.7-9.2-14.8-10.4-20.2-1.7-8.3-.8-13.4.8-22.7.6-3.6,1.3-7.6,2.1-12.8,2-13.9,2.1-22.1,2.1-28.1.1-7,.2-11.6,2.8-19.3.5-1.3,1-2.7,1.5-3.9,1.9-5.1,3.9-10.3,4-17.6v-1.6c0-2.5-.1-5,.9-8.3,1.5-4.7,4.4-9,8.8-12.8,3-2.6,5.4-3.7,7.3-4.6,2.2-1,3.8-1.8,5.4-4.1,1-1.5,1.2-2.2,1.4-3.6.2-1.3.5-2.9,1.6-5.6,2.1-5.3,4.6-8.3,6.5-10.5,2-2.3,2.8-3.5,2.7-5.3-.2-1.7-1-2.5-2.8-3.9-.6-.5-1.3-1.1-2-1.7l-10.9,7.8c-.6.5-1.5.3-2-.3s-.3-1.5.3-2l10.6-7.6c-.7-.8-1.4-1.8-2-3-2.3-4.1-2.7-8.3-3.4-15.9v-.1c-1.5-17-2-22.4-2-23.1,0-8.3,3.2-19.7,8.9-31.3,6.9-14.1,17.1-27.8,29.3-39.7,13.9-13.5,35.6-23.9,79-44.8C185.82,7.81,199.72,3.71,214.72,1.71c9.8-1.3,26.3-3.5,46.5.9,32.7,7.1,52.4,26.7,75.3,49.2,18.9,18.7,29.4,29,31.9,45.6,1.6,10.6.9,27.9-.6,40.3-.2,1.4-.3,2.8-.5,4.1-1.1,8.6-2.1,16,1.3,24.4,1.7,4.3,3.7,6.6,6.6,9.9,1,1.2,2.2,2.5,3.5,4.2,9.8,11.9,12.9,20.9,16.3,30.5,3,8.5,6.2,17.4,14.4,29.1.4.5.8,1.1,1.1,1.6,2.8,3.9,5.2,7.3,6.3,12.8,1,4.6.5,8.7.2,12-.4,4.1-.6,6.5,1.1,8,.9.8,1.8.9,3.1,1.1,1.6.2,3.6.5,5.8,2.3,3.3,2.6,4.6,6.4,5.4,9.7,1.7,6.9,1.4,11.9,1.2,16.7-.1,2.9-.3,5.6,0,8.7.3,4,1.1,5.4,2.7,8.5,1.7,3.3,4.3,8.2,8.2,19.5,2.2,6.4,4.3,13.4,4.4,22.4.1,7.6-1.4,11.4-2.8,13.8l21.4,4.4c.8.2,1.3.9,1.1,1.7s-.9,1.3-1.7,1.1l-22.7-4.6c-1.8,2-5.2,5.1-10,5.9-3,.5-5,0-6.5-.5-1.1-.3-2-.6-3.1-.4-3.1.5-9.1,4.8-13.4,28.9-2.5,13.8-2.1,26.8-1.7,39.4v1c.1,2.8.2,7.5.2,13.9,0,3.6-.2,6-.3,8.1-.1,2.3-.2,4.2-.1,6.8.8,27.7,5.7,46.5,13.3,74.8.1.4,11.2,41.6,28,58.3,6.2,6.1,13.4,9.5,13.5,9.5,3.4,1.5,7,2.7,10.6,3.4,5.2.9,8.5.6,11.4.2,2.9-.3,5.7-.7,9.5.4,6,1.7,9.6,5.2,14.5,10.2,4.6,4.6,6.7,8.2,8.5,11.4,1.4,2.4,2.6,4.7,4.9,7.1,4.7,5.1,9.7,6.7,19.6,9.9,1.3.4,2.6.8,4.1,1.3,26.3,8.5,39.5,12.8,48.4,19.3,4.9,3.6,6.7,6,9.3,9.2,2.8,3.6,6.6,8.5,16.9,18,6.9,6.4,14,12.4,21.3,17.8,10.7,8,17.7,13.4,26.9,17.8,9.4,4.5,15.5,5.4,21.9,6.3,5,.7,10.2,1.5,17.3,4,13.1,4.7,25.4,13,36.4,24.6.5.6.5,1.5-.1,2s-1.5.5-2-.1c-10.7-11.3-22.6-19.4-35.3-23.9-6.8-2.4-11.9-3.2-16.8-3.9-6.6-1-12.9-1.9-22.7-6.6-9.5-4.5-16.6-9.9-27.4-18.1-7.3-5.5-14.6-11.6-21.5-18-10.4-9.7-14.3-14.7-17.2-18.4-2.5-3.2-4.1-5.3-8.7-8.7-8.5-6.3-21.6-10.5-47.6-18.9-1.4-.5-2.8-.9-4.1-1.3-10-3.2-15.6-4.9-20.8-10.6-2.5-2.7-3.8-5.1-5.3-7.6-1.8-3.2-3.7-6.5-8-10.8-4.8-4.8-8-8-13.3-9.5-3.3-.9-5.6-.7-8.4-.3-3.1.4-6.6.8-12.2-.2-3.8-.7-7.7-1.9-11.3-3.6-.3-.1-7.7-3.6-14.3-10.1-17.3-17.2-28.2-57.9-28.7-59.6-7.6-28.6-12.6-47.4-13.3-75.5-.1-2.7,0-4.7.1-7,.1-2.1.2-4.4.3-7.9.1-6.3-.1-11-.2-13.8v-1c-.4-12.8-.8-26,1.8-40,3.5-19.7,8.8-30.2,15.7-31.2,1.7-.2,3,.1,4.2.5,1.4.4,2.9.8,5.3.4,3.2-.6,5.6-2.3,7.3-3.8l-181.3-37c-.4-.1-42-7.8-192.3-11-5.6-.1-18-.4-27.6,4.3l5.7,9.2c.4.7.2,1.5-.5,1.9s-1.5.2-1.9-.5l-5.8-9.3c-2.5,1.5-4.6,3.5-6.3,5.9-3.2,4.5-4.4,10.5-3.8,17.6.1.8-.5,1.5-1.3,1.5-.8.1-1.5-.5-1.5-1.3-.7-7.8.7-14.3,4.3-19.4,1.9-2.8,4.4-5,7.1-6.7l-6-9.7c-4.8-7.8-3.1-20.7-1.4-34.5.2-1.5.4-3.1.6-4.6,1.5-12.2,4.7-24.2,9.3-35.6.3-.7,1.1-1.1,1.8-.8.7.3,1.1,1.1.8,1.8-4.6,11.2-7.7,22.9-9.2,34.9-.2,1.6-.4,3.1-.6,4.6-1.7,13.2-3.3,25.7,1,32.6l6.1,9.8c10.2-5.1,23.3-4.8,29.2-4.7,150.7,3.2,192.3,10.9,192.8,11l182.9,37.4s0-.1.1-.1c1.4-2,3-5.2,2.9-13-.1-8.6-2.1-15.3-4.3-21.5-3.8-11.1-6.4-15.9-8-19.1-1.7-3.2-2.6-5-3-9.5-.3-3.3-.1-6.2,0-9,.2-4.6.5-9.3-1.1-15.9-.7-3-1.8-6.1-4.4-8.2-1.7-1.3-3-1.5-4.5-1.7-1.4-.2-3.1-.4-4.6-1.8-2.8-2.6-2.4-6.2-2-10.4.3-3.3.7-7-.2-11.2-1-4.9-3.2-7.9-5.9-11.7-.4-.5-.8-1.1-1.1-1.6-8.4-12.1-11.6-21.1-14.7-29.8-3.3-9.3-6.4-18.1-15.9-29.7-1.3-1.6-2.5-2.9-3.5-4.1-3-3.5-5.2-5.9-7.1-10.7-3.6-9-2.6-16.8-1.5-25.8.2-1.3.4-2.7.5-4.1,1.7-14.7,2-30.6.6-39.5-2.3-15-11.2-24.4-31.1-44-22.6-22.3-42-41.5-73.9-48.5-19.7-4.3-35.8-2.1-45.5-.8-14.7,2-28.4,5.9-62,22.1-43.1,20.7-64.7,31.1-78.3,44.3-27.6,26.8-37.5,55.9-37.4,68.9,0,.7.8,9,2,22.9v.1c.7,7.8,1.1,11.3,3,14.8.6,1.1,1.2,2,1.9,2.7l13.7-9.8c4.1-3,8.8-9.6,12.2-17.3,5.2-11.7,5-22.7,3.9-29.9-.1-.8.4-1.5,1.2-1.6.8-.1,1.5.4,1.6,1.2,1.1,7.5,1.3,19.1-4.1,31.4-3.7,8.3-8.6,15.2-13.2,18.5l-13.4,9.6c.5.4,1,.8,1.4,1.2,1.8,1.5,3.6,2.9,3.9,5.8.3,3.2-1.4,5.1-3.3,7.4-1.8,2.2-4.1,4.9-6,9.7-1,2.4-1.2,3.9-1.4,5.1-.3,1.5-.5,2.8-1.9,4.7-2.1,3-4.2,4-6.5,5-1.9.9-4,1.9-6.7,4.2-4,3.4-6.7,7.3-8,11.5-.9,2.9-.9,5.1-.8,7.4v1.7c0,7.8-2.1,13.3-4.1,18.6-.5,1.3-1,2.6-1.4,3.9-2.5,7.3-2.6,11.5-2.7,18.4-.1,6.1-.2,14.4-2.2,28.4-.7,5.2-1.4,9.3-2.1,12.9-1.6,8.9-2.4,13.8-.8,21.6,1.1,5.4,2.7,13.5,9.3,18.5,2.5,1.9,4.6,2.6,6.7,3.2,2.4.7,4.7,1.4,6.6,4,2.7,3.7,2,7.4,1.2,11.3-.7,3.5-1.5,7.2.1,11.6,1.4,3.8,3.9,6.7,8.5,10.6,2.6-.3,5.3-.6,7.9-.7,7.8-.5,13.8-.2,20.1,3.1.3.2.6.4.6.4,2.2,1.3,6,4.3,7,9.8.3,1.8.8,6.4-2,10.4-.7,1.1-1.6,2.3-3.2,3.1-3.1,1.6-7.5.3-11.5-3.2-.1.9-.1,2.1,0,3.8.3,3.8,1.2,6.4,1.7,8.2.1.3.2.5.2.8,1.7,5.7.5,10.1-.7,14.7-1.3,4.7-2.6,9.5-1.3,16.7.4,2.3.8,3.3,1.2,4.3.4,1.1.8,2.1.9,4.3.1,5.2-1.7,8.3-3.7,11.7-1.5,2.6-3.1,5.4-4.2,9.5-1,3.8-2.8,10.9.7,17.5,3.2,5.8,9.2,8.6,11.7,9.5,1.9.7,2.9.8,4,.9.9.1,1.8.1,3,.6,5.6,2,6.9,7.7,8.6,15.6,1.5,6.7,3.4,15.1,8.6,24.3,5.7,10,8.5,15,11.7,18.9.9,1.1,1.8,2.1,2.7,3.1,3.1,3.5,5.7,6.5,7.4,11.5,1.2,3.6,1.1,6,1.1,8.5,0,1.4,0,2.8.1,4.5,1.3,14,11.9,23.7,13.1,24.8,7.8,6.9,16.6,7.8,28.7,9.2,11.1,1.2,26.3,2.9,39.9-5,2-1.2,3.7-2.4,5.2-3.5,2.4-1.7,4.4-3.2,6.6-3.7,20.6-8.5,40.4-18.8,58.7-30.7,18.6-12.1,33.4-21.6,47.4-39.3,9.2-11.6,16.5-24.7,21.7-38.9.3-.7,1.1-1.1,1.8-.8s1.1,1.1.8,1.8c-5.3,14.5-12.8,27.8-22.2,39.7-14.3,18-29.2,27.7-48,39.9-17.2,11.2-35.7,21-54.9,29.1,2.5,1.5,3.7,4.5,5.3,8.3,1,2.5,2.3,5.5,4.1,9,4.2,7.7,8.4,11.6,11.8,14.6,3.7,3.4,6.7,6.1,7.4,11.9.9,6.9-1.9,13.2-4.9,17.9,10.2,5.7,21.5,9.5,33.8,9.5h.1c6,0,12.2-1.5,24.5-4.6,15.6-3.9,35.1-9.7,87-34,13-6.1,26.2-12.5,39.3-19.1.7-.4,1.6-.1,1.9.6.4.7.1,1.6-.6,1.9-13,6.5-26.3,13-39.3,19.1-52.2,24.5-71.9,30.3-87.6,34.2-12.5,3.1-18.8,4.7-25.1,4.7h-.1c-13,0-24.8-3.9-35.4-9.9-.9,1.3-1.8,2.4-2.5,3.3-4.6,5.9-10.5,10.7-17.8,14.2h-.1c-7.8,3.9-77.4,38.8-110.6,73.4-23.9,25-32.4,53.9-41.3,84.4-7.8,26.8-11.6,54.7-11.2,82.8.5,1-.2,1.7-1,1.7h0Zm10-538.7c.3,0,.6.2.8.4,3.3,3.4,7.2,4.9,9.4,3.8.9-.5,1.5-1.3,2-2.1,2.2-3.2,1.8-6.9,1.5-8.4-.8-4.4-3.9-6.8-5.7-7.9,0,0-.2-.1-.5-.3-5.6-3-11.3-3.2-18.6-2.8-1.7.1-3.4.3-5.1.4.9.8,1.9,1.6,2.9,2.4,1.5,1.3,2.9,2.4,4.3,3.4,4.9,3.7,8.4,6.4,9,11.1h0Zm29,522.2c-.2,0-.4,0-.5-.1-.7-.3-1.1-1.1-.8-1.8,6.3-15.5,13.3-31,20.9-46.1,11-22.1,19.7-39.5,34.8-60,11.4-15.6,24.6-30.2,39.2-43.6.6-.5,1.5-.5,2,.1s.5,1.5-.1,2c-14.5,13.2-27.5,27.7-38.8,43.2-14.9,20.4-23.6,37.7-34.6,59.6-7.5,15-14.5,30.5-20.8,45.9-.2.5-.7.8-1.3.8h0Zm472.7-29.5c-.2,0-.3,0-.5-.1-.7-.3-1.1-1.1-.9-1.8,8.4-23.6,20.1-45.4,34.9-64.6,8.6-11.1,18.3-23.7,35-35,15.4-10.4,32.8-17.1,51.7-20.2.8-.1,1.5.4,1.6,1.2.1.8-.4,1.5-1.2,1.6-18.5,3-35.5,9.6-50.6,19.7-16.4,11-25.9,23.4-34.4,34.4-14.6,19-26.2,40.4-34.5,63.8,0,.7-.6,1-1.1,1h0Zm-89.4-.8c-.2,0-.4,0-.5-.1-.7-.3-1.1-1.1-.8-1.8,11.7-29.4,22.8-58.8,32.9-87.5,1.1-3.2,2.2-6.2,3.1-8.9,5.3-15.2,8.5-24.3,14.3-36.3,11.6-24.1,27.1-46.4,46.2-66.3.5-.6,1.4-.6,2,0,.6.5.6,1.4,0,2-18.9,19.6-34.2,41.7-45.7,65.5-5.7,11.8-8.9,21-14.2,36-1,2.7-2,5.7-3.1,8.9-10.1,28.8-21.2,58.2-33,87.6-.1.5-.6.9-1.2.9h0Zm-314.8-274.5c-4.2,0-8.2-.8-12.2-2.7-8.4-4-13.9-11.4-15.7-13.9-3.9-5.3-6.8-11.3-8.5-17.8-.2-.8.3-1.5,1-1.7.8-.2,1.5.3,1.7,1,1.6,6.2,4.3,11.8,8,16.9,1.7,2.3,6.9,9.4,14.6,13,9,4.2,17.9,2.3,31.5-1.4,28.8-7.8,43.2-11.7,51.4-15.5,25.1-11.8,48.2-30,66.7-52.5.5-.6,1.4-.7,2-.2s.7,1.4.2,2c-18.8,22.9-42.2,41.3-67.7,53.3-8.4,3.9-22.9,7.9-51.8,15.7-8.4,2.1-15.1,3.8-21.2,3.8h0Zm2.4-74c-.4,0-.7-.1-1-.4-2.8-2.7-5.9-4.3-9.1-4.8-1.7-.3-2.9-.1-5.6.2-1.2.2-2.7.4-4.6.6-6.6.7-9.9,1.1-12.1.8-4-.6-6.3-2-8.4-3.2-1.9-1.1-3.5-2.1-6.2-2.3-3.2-.2-6.6.8-10.1,3.1-.7.4-1.5.2-2-.4-.4-.7-.2-1.5.4-2,4-2.6,8-3.8,11.9-3.5,3.4.2,5.5,1.5,7.5,2.7,1.9,1.2,3.9,2.4,7.3,2.9,1.8.3,5.2-.1,11.4-.8,1.9-.2,3.4-.4,4.6-.6,2.8-.4,4.3-.6,6.4-.2,3.8.6,7.3,2.5,10.6,5.6.6.5.6,1.4.1,2-.4.2-.8.3-1.1.3h0Zm-74.9-45.8c-.3,0-.6-.1-.8-.3-.6-.5-.8-1.3-.3-2,3.2-4.4,7.6-7.3,13.2-8.8,6.3-1.7,12.7.4,17,1.8,2.9.9,4.9,1.9,6.4,2.6,2.2,1,2.9,1.3,3.8.9,2.7-1.2,3.9-6.8,3.2-11.4-.5-3.6-2.4-7.1-5.6-10.4-5.1-5.2-10.1-6.5-15-7.7-4.7-1.1-9.1-2.2-12.5-6.7-2.7-3.6-3-9.3-3.6-19.7-.4-6.9,1.9-14.2,3.7-20.1,1-3.3,1.9-6.2,2.1-8.3.1-.8.8-1.3,1.6-1.3.8.1,1.3.8,1.3,1.6-.2,2.4-1.2,5.4-2.2,8.9-1.7,5.6-3.9,12.6-3.5,19.1.6,10.6.9,15.3,3,18.1,2.8,3.7,6.5,4.6,10.9,5.7,5,1.2,10.7,2.6,16.3,8.4,3.6,3.7,5.8,7.8,6.4,12,.6,4.5-.1,12.4-4.9,14.4-2.1.9-3.8.1-6.2-1-1.5-.7-3.3-1.6-6-2.4-4.2-1.3-9.8-3.2-15.4-1.7-5,1.3-8.9,3.9-11.6,7.7-.4.4-.9.6-1.3.6h0Zm252.9-20c-.6,0-1.2-.4-1.4-1-.2-.7.2-1.5,1-1.8,19.2-5.7,30.3-13.5,32.9-23,.4-1.4.4-2,.3-4.6-.1-2.8-.1-8.1.2-19,.5-14.5,1-18.2,3.4-22.3,1.9-3.4,4.1-5.4,5.9-7,2.1-2,3.1-3,3.2-5,.1-4.7-5.4-8.6-9.8-11.8-4.9-3.6-8.9-6.4-13.7-5.5-7.5,1.3-10.9,10.5-11.1,10.9-.3.7-1.1,1.1-1.8.9s-1.1-1.1-.9-1.8c.4-1.1,4.2-11.2,13.2-12.8,6-1.1,10.5,2.2,15.8,6,5,3.6,11.1,8,11,14.2-.1,3.3-1.9,5-4.1,7-1.7,1.6-3.6,3.3-5.3,6.4-1.9,3.4-2.5,6.4-3,21-.4,10.8-.3,16.1-.2,18.9.1,2.7.1,3.7-.4,5.4-2.8,10.5-14.6,18.9-34.8,25-.1-.1-.2-.1-.4-.1h0Zm10.7-17.9c-.3,0-.6-.1-.9-.3-.6-.5-.7-1.4-.2-2,5.7-6.8,9.2-14,10.4-21.3.9-5.8.2-10.3-.4-14.4-.8-5.4-1.5-10.1,1.7-15.6,1.5-2.6,3.4-4.4,5.1-6,2.5-2.4,4.2-4.1,4.3-7.2,0-.2,0-4-2.7-6.1-2.7-2.2-7.5-1.9-10.7.6-3.4,2.7-3.5,7-3.5,7.8s-.6,1.4-1.4,1.4h0c-.8,0-1.4-.6-1.4-1.4,0-1.1.2-6.6,4.6-10.1,3.7-2.9,10-4,14.2-.6,3.7,3,3.7,7.8,3.7,8.3,0,4.3-2.5,6.7-5.1,9.2-1.6,1.6-3.3,3.2-4.6,5.4-2.8,4.6-2.1,8.6-1.4,13.7.6,4.2,1.4,9.1.4,15.3-1.2,7.8-4.9,15.5-11,22.7-.3.4-.7.6-1.1.6h0Zm-190-62.2c-1.2,0-2.5-.1-3.8-.2-4.5-.5-11.2-1.2-14.4-6.5-1.7-2.9-2-6.6-.9-10.7,1.3-4.6,4.3-8.7,7.8-10.7,3.7-2,9.9-1.2,22.3.4,2.1.3,4.2.6,6.2.9.8.1,1.3.9,1.2,1.6-.1.8-.9,1.3-1.6,1.2-2-.3-4.1-.6-6.1-.9-11.3-1.5-17.6-2.3-20.5-.7s-5.4,5-6.5,8.9c-.9,3.2-.6,6.3.6,8.5,2.4,4,8.1,4.6,12.2,5.1,7.1.8,13.4-.8,17.7-4.3,2.2-1.8,3.1-3.4,4.2-5.3,1.2-2.1,2.5-4.5,5.9-7.1,3.6-2.8,7-3.9,10.5-5.1,7.6-2.6,15.7-3.6,24.2-3.3.8,0,1.4.7,1.3,1.5,0,.8-.7,1.4-1.5,1.3-8.2-.4-16,.7-23.2,3.1-3.5,1.2-6.5,2.2-9.7,4.7-3,2.3-4.1,4.3-5.2,6.3-1.1,1.9-2.2,4-4.9,6.1-3.9,3.4-9.5,5.2-15.8,5.2h0Zm-63.2-28.4c-.3,0-.7-.1-.9-.4-.6-.5-.6-1.4-.1-2,1.7-1.9,0-4-4.2-8.2-1.5-1.6-3.7-2.6-5.4-3.5-2.1-1.1-3.8-1.9-3.7-3.6.2-2,2.6-3.6,8.1-5.2,3.7-1.1,8.7-2.1,13.7-2.7,5.9-.8,8.9-1.2,15.4-1,12.2.4,33.7-2.2,63.7-7.7.8-.1,1.5.4,1.6,1.1s-.4,1.5-1.1,1.6c-30.2,5.6-51.9,8.2-64.3,7.7-6.2-.2-9.1.2-14.9.9-10.8,1.4-17.8,3.8-19.1,5.1.5.3,1.3.7,1.9,1.1,1.9,1,4.2,2.2,6.1,4.1,3.9,3.9,7.9,8,4.3,12-.3.6-.7.7-1.1.7h0Zm267.4-45.5c-.8,0-1.4-.6-1.4-1.4-.4-9.5-.2-19.1.6-28.5.9-11.3,2.7-22.7,5.2-33.7.2-.8.9-1.2,1.7-1.1.8.2,1.2.9,1.1,1.7-2.5,10.9-4.3,22.2-5.2,33.3-.8,9.3-1,18.8-.6,28.2,0,.8-.6,1.4-1.4,1.5h0Zm-22.6-26.1c-.7,0-1.4-.6-1.4-1.3-.5-7.6-.3-15.3.6-22.8.7-5.9,1.9-11.8,3.5-17.6.2-.8,1-1.2,1.7-1,.8.2,1.2,1,1,1.7-1.6,5.6-2.7,11.4-3.4,17.1-.9,7.4-1.1,14.9-.6,22.3.1.9-.5,1.6-1.4,1.6q.1,0,0,0h0Zm39.3-9.2h-.2c-.8-.1-1.3-.9-1.1-1.6l4.6-26c.1-.8.9-1.3,1.6-1.1.8.1,1.3.9,1.1,1.6l-4.6,26c-.1.6-.7,1.1-1.4,1.1h0Zm-324.9-19.1c-.7,0-1.3-.5-1.4-1.3-.8-6.9-.6-13.8.6-20.6,1.5-8.5,4.5-16.7,8.8-24.2.4-.7,1.3-.9,1.9-.5.7.4.9,1.3.5,1.9-4.2,7.2-7.1,15-8.5,23.2-1.1,6.5-1.3,13.2-.6,19.8.1.8-.5,1.5-1.2,1.6q0,.1-.1.1h0Zm324.4-37.6c-.2,0-.4,0-.6-.1-18.6-8.2-38-15.4-57.6-21.3-22.7-6.9-39.6-10.2-73.3-16.7-29.5-5.7-59.8-10.7-85.5-13.9-14.6-1.8-29.3-3.4-43.9-4.6-.8-.1-1.4-.8-1.3-1.5s.8-1.3,1.5-1.3c14.6,1.3,29.4,2.8,44,4.6,25.7,3.2,56.1,8.1,85.7,13.9,33.8,6.6,50.7,9.9,73.6,16.8,19.7,6,39.2,13.2,58,21.4.7.3,1,1.1.7,1.9-.3.5-.8.8-1.3.8h0Zm-46.3-37.5c-.7,0-1.3-.5-1.4-1.3-1.8-16-5.1-31.9-9.8-47.1-2.3-7.6-5-15.1-8-22.4-.3-.7,0-1.6.8-1.8.7-.3,1.6,0,1.8.8,3.1,7.4,5.8,15,8.1,22.7,4.7,15.5,8.1,31.5,9.9,47.7.1.8-.5,1.5-1.3,1.6q0-.2-.1-.2h0Zm-113.9-25.5c-.6,0-1.1-.4-1.3-1-1.3-3.6-2.3-7.4-2.9-11.2-1.5-8.4-1.7-16.4-.6-23.6,2.3-14.8,10.3-25.9,16.6-32.5.5-.6,1.4-.6,2-.1s.6,1.4.1,2c-6,6.4-13.6,17-15.8,31-1.1,6.9-.9,14.5.6,22.6.7,3.6,1.6,7.3,2.8,10.8.3.7-.1,1.5-.9,1.8-.3.2-.4.2-.6.2h0Zm-38.1-6.3c-.7,0-1.3-.5-1.4-1.2-2-14.1-1.6-28.2,1.2-42.1,2.4-12,6.5-23.6,12.3-34.5.4-.7,1.2-1,1.9-.6.7.4,1,1.2.6,1.9-5.6,10.6-9.7,22-12,33.7-2.7,13.6-3.1,27.4-1.1,41.2.1.8-.4,1.5-1.2,1.6h-.3Zm-34.4-7.5h-.2c-.8-.1-1.3-.9-1.2-1.6.7-3.9-.1-9.1-.9-14.7-.9-6.6-1.9-13.4-.6-19,1.5-6.3,5.7-13.3,9.8-20.1,3.3-5.4,6.4-10.5,7.7-14.7.2-.7,1-1.2,1.8-.9.7.2,1.2,1,.9,1.8-1.4,4.5-4.6,9.8-8,15.3-4,6.6-8.1,13.4-9.5,19.3-1.2,5-.3,11.6.6,17.9.8,5.7,1.6,11.2.8,15.5,0,.7-.6,1.1-1.2,1.2h0Zm14.7-143.4c-.4,0-.8-.2-1.1-.5-.5-.6-.4-1.5.2-2,9.6-7.7,20.2-13.8,31.6-18.1,9.3-3.6,28.6-11,52.8-7,20.1,3.3,35.1,13,44,20.5.6.5.7,1.4.2,2s-1.4.7-2,.2c-8.7-7.3-23.2-16.7-42.7-19.9-23.4-3.8-41.5,3.1-51.3,6.9-11.1,4.3-21.5,10.2-30.8,17.7-.3.1-.6.2-.9.2h0Z"/>
    </g>
  </g>
</svg>