<?xml version="1.0" encoding="UTF-8"?>
<svg id="Layer_2" data-name="Layer 2" xmlns="http://www.w3.org/2000/svg" viewBox="0 0 788.87 206.87" >
  <g id="Layer_1-2" data-name="Layer 1" >
    <g fill="currentColor">
      <path d="m34.18,57.53c-2.03.65-3.6,1.55-4.7,2.68-1.1,1.14-2.13,2.28-3.11,3.42-2.93,3.58-5.43,7.26-7.5,11.04s-3.92,7.67-5.55,11.65c-.81,1.95-1.53,3.92-2.14,5.92-.61,1.99-1.16,3.96-1.65,5.92-.9,3.66-1.46,6.67-1.71,9.03-.24,2.36-.35,4.31-.31,5.86.04,1.55.12,2.85.24,3.9.12,1.06.06,2.07-.18,3.05,0,.65-.35,1.18-1.04,1.59-.69.41-1.45.63-2.26.67-.81.04-1.61-.12-2.38-.49-.77-.37-1.24-.96-1.4-1.77-.16-.81-.29-1.63-.37-2.44-.08-.81-.12-1.67-.12-2.56-.16-6.67.81-13.26,2.93-19.76,2.11-6.51,4.8-13.01,8.05-19.52,1.95-3.74,4.23-7.48,6.83-11.22,1.06-1.46,2.2-2.91,3.42-4.33,1.22-1.42,2.52-2.75,3.9-3.96,1.63-1.46,3.29-2.54,5-3.23,1.71-.69,3.36-1,4.94-.92,1.59.08,3.03.55,4.33,1.4,1.3.85,2.36,2.05,3.17,3.6,1.14,2.28,1.83,4.76,2.07,7.44.16,3.17.22,6.37.18,9.58-.04,3.21-.1,6.41-.18,9.58-.08,7.56-.43,15.05-1.04,22.45-.61,7.4-1.45,14.93-2.5,22.57-.9,6.26-1.93,12.5-3.11,18.73-1.18,6.22-2.38,12.46-3.6,18.73-.9,4.8-1.69,9.54-2.38,14.21-.69,4.68-1.4,9.41-2.14,14.21-.08.57-.16,1.38-.24,2.44-.08,1.06.08,1.67.49,1.83.49,0,1.26-.37,2.32-1.1,1.06-.73,1.83-1.34,2.32-1.83,2.93-3.5,5.88-6.98,8.84-10.43,2.97-3.46,5.75-7.01,8.36-10.67,6.1-8.62,11.61-17.36,16.53-26.23,4.92-8.86,9.09-17.97,12.5-27.33,3.58-9.76,6.59-19.44,9.03-29.04,2.44-9.6,3.98-19.32,4.64-29.16.65-8.86.63-17.55-.06-26.05-.69-8.5-2.26-16.82-4.7-24.95-.57-1.79-1.12-3.6-1.65-5.43-.53-1.83-.71-3.88-.55-6.16.08-.32.24-.47.49-.43.24.04.51.14.79.3.28.16.55.35.79.55.24.2.41.35.49.43,1.95,2.52,3.52,5.17,4.7,7.93,1.18,2.77,2.17,5.65,2.99,8.66,2.11,7.65,3.35,15.35,3.72,23.12.37,7.77.22,15.72-.43,23.85-1.14,13.83-3.78,27.41-7.93,40.75-4.15,13.34-9.56,26.68-16.23,40.02-3.9,7.65-8.24,15.11-12.99,22.39-4.76,7.28-9.94,14.42-15.55,21.41-1.38,1.63-2.81,3.21-4.27,4.76-1.46,1.54-2.97,3.09-4.51,4.64-1.71,1.71-3.58,3.15-5.61,4.33-2.03,1.18-4.19,2.18-6.47,2.99-2.36.89-4.17.98-5.43.24-1.26-.73-1.73-2.16-1.4-4.27.81-5.53,1.63-11.02,2.44-16.47.81-5.45,1.75-10.9,2.81-16.35.98-5.37,1.93-10.76,2.87-16.17.93-5.41,1.97-10.8,3.11-16.17.32-1.71.71-4.15,1.16-7.32.45-3.17.87-6.63,1.28-10.37.41-3.74.81-7.52,1.22-11.35.41-3.82.77-7.2,1.1-10.13.16-3.98.32-7.95.49-11.89.16-3.94.2-7.87.12-11.77,0-1.95-.1-3.9-.3-5.86-.2-1.95-.47-3.86-.79-5.73-.16-.89-.47-1.73-.92-2.5-.45-.77-.88-1.6-1.28-2.5Z" />
      <path d="m150.32,132.69c.57-.24,1.24-.22,2.01.06.77.29,1.12.71,1.04,1.28,0,.49-.08.85-.24,1.1-.41.81-.85,1.65-1.34,2.5-.49.85-1.14,1.91-1.95,3.17-.81,1.26-1.85,2.77-3.11,4.51-1.26,1.75-2.87,3.92-4.82,6.53-1.06,1.55-2.3,3.07-3.72,4.58-1.42,1.51-2.93,2.97-4.51,4.39-1.59,1.42-3.21,2.79-4.88,4.09-1.67,1.3-3.28,2.44-4.82,3.42-1.38.89-2.89,1.63-4.51,2.2-1.63.57-3.25,1.02-4.88,1.34-2.93.65-5.73.31-8.42-1.04-2.68-1.34-4.64-3.4-5.86-6.16-.65-1.54-1.2-3.15-1.65-4.82-.45-1.67-.79-3.31-1.04-4.94-.73-5.94-.77-11.79-.12-17.57.65-5.77,1.67-11.55,3.05-17.32.81-4.23,1.89-8.89,3.23-13.97,1.34-5.08,2.81-10.29,4.39-15.62,1.59-5.33,3.23-10.61,4.94-15.86s3.37-10.19,5-14.82c.41-.98.83-1.93,1.28-2.87.45-.93.92-1.89,1.4-2.87,1.06-2.03,2.52-2.72,4.39-2.07,2.6.81,3.54,2.4,2.81,4.76-.41,1.71-.88,3.44-1.4,5.18-.53,1.75-1.12,3.48-1.77,5.19-1.71,4.88-3.32,9.33-4.82,13.36-1.51,4.03-2.95,7.93-4.33,11.71-1.38,3.78-2.68,7.52-3.9,11.22-1.22,3.7-2.36,7.62-3.42,11.77-1.14,4.64-2.13,9.25-2.99,13.85-.85,4.6-1.52,9.25-2.01,13.97-.24,2.6-.23,5.18.06,7.75.28,2.56.63,5.15,1.04,7.75.16.81.37,1.59.61,2.32.24.73.53,1.46.85,2.2,2.03,4.47,5.2,5.73,9.52,3.78,1.63-.65,3.15-1.42,4.58-2.32,1.42-.89,2.83-1.87,4.21-2.93,2.85-2.11,5.49-4.43,7.93-6.95,2.44-2.52,4.8-5.12,7.08-7.81.32-.41.99-1.28,2.01-2.62,1.02-1.34,2.11-2.76,3.29-4.27,1.18-1.5,2.28-2.91,3.29-4.21,1.02-1.3,1.73-2.15,2.13-2.56l.37-.37Z"/>
      <path d="m229.75,134.76c0,.65-.33,1.16-.98,1.53-.65.37-1.18.55-1.59.55-3.01.81-5.65,1.57-7.93,2.26-2.28.69-4.54,1.4-6.77,2.14-2.24.73-4.64,1.51-7.2,2.32-2.56.81-5.63,1.71-9.21,2.68-3.25.9-6.34,1.81-9.27,2.75-2.93.94-5.57,1.49-7.93,1.65-2.77.24-5.17-.1-7.2-1.04-2.03-.93-3.38-2.83-4.03-5.67-.33-.65-.57-1.1-.73-1.34-.08-.16-.37-.37-.85-.61-.49,0-1.45.55-2.87,1.65-1.42,1.1-3.21,2.42-5.37,3.96-2.16,1.55-4.6,3.13-7.32,4.76-2.73,1.63-5.63,3.05-8.72,4.27-1.54.41-2.99.49-4.33.24-1.34-.24-2.54-1.06-3.6-2.44-1.87-2.52-2.11-5.25-.73-8.17.57-.98,1.3-2.05,2.2-3.23.9-1.18,1.75-2.17,2.56-2.99,1.38-1.3,2.64-2.5,3.78-3.6,1.14-1.1,2.3-2.13,3.48-3.11,1.18-.98,2.4-1.93,3.66-2.87,1.26-.93,2.7-1.93,4.33-2.99,5.45-3.5,11.02-5.49,16.71-5.98,1.38-.08,2.64.1,3.78.55,1.14.45,2.15,1.24,3.05,2.38.41.81.61,1.71.61,2.68-.16.33-.37.47-.61.43-.24-.04-.45-.02-.61.06-3.66-.65-7.22-.71-10.67-.18-3.46.53-6.73,1.69-9.82,3.48-2.6,1.63-4.92,3.29-6.95,5-2.03,1.71-4.27,3.99-6.71,6.83-.41.49-.83,1.06-1.28,1.71-.45.65-.85,1.3-1.22,1.95-.37.65-.67,1.28-.92,1.89-.24.61-.32,1.08-.24,1.4.08.73.73,1.14,1.95,1.22,1.22.08,2.71-.12,4.45-.61,1.75-.49,3.66-1.22,5.73-2.2,2.07-.98,4.04-2.15,5.92-3.54,2.6-1.87,4.98-4.17,7.14-6.89,2.15-2.72,4.17-5.39,6.04-7.99.65-.32,1.2-.37,1.65-.12.45.24.83.65,1.16,1.22.32.57.55,1.2.67,1.89.12.69.18,1.32.18,1.89,0,.9-.08,1.79-.24,2.68-.16.9-.33,1.79-.49,2.68-.16,1.55.1,2.64.79,3.29.69.65,1.73,1.06,3.11,1.22,1.79.16,3.86.12,6.22-.12,2.36-.24,4.39-.57,6.1-.98,1.95-.49,3.68-.92,5.19-1.28,1.5-.37,3.03-.75,4.58-1.16,1.54-.41,3.21-.89,5-1.46,1.79-.57,3.9-1.26,6.34-2.07,1.79-.65,3.25-1.16,4.39-1.53,1.14-.37,2.09-.67,2.87-.92.77-.24,1.48-.45,2.13-.61.65-.16,1.46-.37,2.44-.61.32-.08.81-.2,1.46-.37.65-.16,1.32-.3,2.01-.43.69-.12,1.34-.2,1.95-.24.61-.04,1.04-.06,1.28-.06.57.16.98.35,1.22.55.24.2.32.75.24,1.65Z"/>
      <path d="m325.15,133.54c-.41.65-.71,1.08-.92,1.28-.2.2-.47.39-.79.55-1.55.9-3.11,1.77-4.7,2.62-1.59.85-3.19,1.53-4.82,2.01-2.68,1.22-5.31,2.34-7.87,3.36-2.56,1.02-5.12,1.97-7.69,2.87-2.56.9-5.21,1.75-7.93,2.56-2.73.81-5.63,1.63-8.72,2.44-2.36.57-4.74.81-7.14.73-2.4-.08-4.74-.37-7.02-.85-4.15-.98-7.56-2.76-10.25-5.37-2.68-2.6-4.84-5.77-6.47-9.52-.41-1.06-.75-2.11-1.04-3.17-.29-1.06-.63-2.15-1.04-3.29-.9-.32-1.63-.2-2.2.37s-1.14,1.1-1.71,1.59c-2.6,2.12-5.12,4.27-7.56,6.47-2.44,2.2-4.92,4.35-7.44,6.47-1.38,1.14-2.81,2.22-4.27,3.23-1.46,1.02-2.97,1.97-4.51,2.87-1.71,1.06-3.46,1.71-5.25,1.95-.98.16-1.89.08-2.75-.24-.85-.32-1.57-.83-2.14-1.52-.57-.69-.96-1.46-1.16-2.32-.2-.85-.14-1.77.18-2.75.57-1.95,1.59-3.82,3.05-5.61,3.25-4.15,6.83-7.91,10.74-11.29,3.9-3.37,8.17-6.41,12.81-9.09,3.09-1.79,6.14-2.56,9.15-2.32h1.46c.49,0,1.06.04,1.71.12.16-.89.32-1.67.49-2.32.16-.65.32-1.3.49-1.95,1.14-5.61,2.7-10.78,4.7-15.49,1.99-4.72,4.21-9.52,6.65-14.4.73-1.54,1.75-2.38,3.05-2.5,1.3-.12,2.36.51,3.17,1.89.81,1.38,1.32,2.81,1.53,4.27.2,1.46.22,3.01.06,4.64-.33,3.9-1.1,7.62-2.32,11.16-1.22,3.54-3.05,7.01-5.49,10.43-.41.57-.92,1.26-1.53,2.07-.61.81-1.16,1.46-1.65,1.95-1.3,1.38-2.24,2.75-2.81,4.09-.57,1.34-.92,2.64-1.04,3.9-.12,1.26-.06,2.56.18,3.9.24,1.34.57,2.71.98,4.09.81,2.93,2.13,5.41,3.96,7.44,1.83,2.03,4.33,3.46,7.5,4.27,3.09.81,6.22,1.12,9.39.92,3.17-.2,6.3-.63,9.39-1.28,2.6-.57,5.55-1.42,8.84-2.56,3.29-1.14,6.55-2.32,9.76-3.54,3.21-1.22,6.24-2.36,9.09-3.42,2.85-1.06,5.16-1.79,6.95-2.2.32-.08.77-.18,1.34-.3.57-.12,1.12-.18,1.65-.18s.98.06,1.34.18c.37.12.55.39.55.79Zm-103.46,7.93c3.58-1.87,6.85-4.07,9.82-6.59,2.97-2.52,5.88-5.12,8.72-7.81.16-.24.41-.63.73-1.16.32-.53.41-.83.24-.92-3.34,1.38-6.69,3.5-10.07,6.34-3.38,2.85-6.53,6.22-9.46,10.13Zm36.84-35.5c1.38-1.63,2.5-3.29,3.36-5,.85-1.71,1.28-3.62,1.28-5.73-1.14,1.63-2.12,3.34-2.93,5.12-.81,1.79-1.38,3.66-1.71,5.61Z"/>
      <path d="m351.62,133.66c-1.87,2.12-3.44,3.99-4.7,5.61-1.26,1.63-2.54,3.05-3.84,4.27-1.46,1.38-2.97,3.01-4.51,4.88-1.55,1.87-3.13,3.38-4.76,4.51-3.9,2.6-7.4,3.6-10.49,2.99-3.09-.61-5.33-2.7-6.71-6.28-.41-.98-.73-1.99-.98-3.05-.24-1.06-.41-2.15-.49-3.29v-6.28c0-.93.02-1.89.06-2.87.04-.98.06-2.11.06-3.42.24-.57.73-1,1.46-1.28.73-.28,1.48-.38,2.26-.3.77.08,1.44.35,2.01.79.57.45.85,1.16.85,2.13,0,.41-.02,1.08-.06,2.01-.04.94-.08,1.93-.12,2.99-.04,1.06-.06,2.05-.06,2.99v1.77c0,3.25.93,5.94,2.81,8.05.65.65,1.4,1.04,2.26,1.16.85.12,1.73-.14,2.62-.79,1.54-1.14,3.07-2.52,4.58-4.15,1.5-1.63,2.91-3.13,4.21-4.51,1.87-2.03,3.66-4.25,5.37-6.65,1.71-2.4,3.46-4.66,5.25-6.77.41-.41.77-.85,1.1-1.34.32-.49.69-.93,1.1-1.34.81-.81,1.67-1.32,2.56-1.53.89-.2,1.79-.22,2.68-.06.89.16,1.5.53,1.83,1.1.32.57.49,1.26.49,2.07,0,1.55-.02,2.83-.06,3.84-.04,1.02-.06,1.97-.06,2.87s-.02,1.87-.06,2.93c-.04,1.06-.06,2.36-.06,3.9-.08.9-.12,1.75-.12,2.56v2.44c.98.57,1.83.61,2.56.12.73-.49,1.42-.93,2.07-1.34,4.39-2.44,8.8-4.53,13.24-6.28,4.43-1.75,8.97-3.19,13.6-4.33.73-.16,1.54-.34,2.44-.55.89-.2,1.77-.37,2.62-.49.85-.12,1.59-.16,2.2-.12.61.04,1,.22,1.16.55.08.49-.06.88-.43,1.16-.37.29-.83.55-1.4.79-.57.24-1.18.45-1.83.61-.65.16-1.18.33-1.59.49-2.44.81-4.86,1.59-7.26,2.32-2.4.73-4.78,1.55-7.14,2.44-3.82,1.38-7.48,3.07-10.98,5.06-3.5,1.99-6.96,4.41-10.37,7.26-.65,2.6-1.28,5.27-1.89,7.99-.61,2.73-1.28,5.47-2.01,8.24-.65,1.95-1.34,3.88-2.07,5.79-.73,1.91-1.51,3.84-2.32,5.79-1.3,3.01-3.5,5.69-6.59,8.05-2.44,1.87-4.76,2.64-6.95,2.32-2.2-.33-3.62-1.75-4.27-4.27-.49-1.71-.53-3.7-.12-5.98.41-2.52,1.18-4.98,2.32-7.38,1.14-2.4,2.64-4.66,4.51-6.77,1.63-1.95,3.27-3.82,4.94-5.61,1.67-1.79,3.36-3.62,5.06-5.49.81-.89,1.54-1.79,2.2-2.68.65-.89,1.06-1.91,1.22-3.05.24-1.71.45-3.13.61-4.27.16-1.14.26-2.3.31-3.48.04-1.18.04-2.44,0-3.78-.04-1.34-.14-3.03-.31-5.06Zm-15.01,53.93c1.95-.73,3.4-1.75,4.33-3.05.93-1.3,1.69-2.64,2.26-4.03,1.3-3.09,2.62-6.22,3.96-9.39,1.34-3.17,1.97-6.47,1.89-9.88-2.85,2.28-5.37,4.74-7.56,7.38-2.2,2.64-3.7,5.14-4.51,7.5-.33.98-.65,1.93-.98,2.87-.33.93-.55,1.89-.67,2.87-.12.98-.1,1.95.06,2.93.16.98.57,1.91,1.22,2.81Z"/>
      <path d="m427.02,155.62c-.73-.73-1.59-1.69-2.56-2.87-.98-1.18-1.83-2.79-2.56-4.82-.73-2.03-1.24-4.53-1.52-7.5-.28-2.97-.1-6.61.55-10.92.32-2.85.92-5.57,1.77-8.17.85-2.6,1.97-5.16,3.36-7.69,4.47-8.38,9.54-16.18,15.19-23.42,5.65-7.24,11.81-14.15,18.48-20.74,3.09-3.09,6.32-6,9.7-8.72,3.37-2.72,7.06-5.06,11.04-7.02,4.23-2.11,8.46-3.31,12.69-3.6,4.23-.28,8.54.02,12.93.92,4.15.9,7.22,2.64,9.21,5.25,1.99,2.6,3.15,6.1,3.48,10.49.24,5.29-.53,10.25-2.32,14.88-1.22,3.34-2.52,6.61-3.9,9.82-1.38,3.21-2.93,6.37-4.64,9.46-5.86,10.41-12.22,20.37-19.09,29.89-6.87,9.52-14.17,18.83-21.9,27.94-2.85,3.34-5.69,6.63-8.54,9.88-2.85,3.25-5.69,6.55-8.54,9.88-1.46,1.71-3.03,3.29-4.7,4.76-1.67,1.46-3.56,2.72-5.67,3.78-1.79.89-3.56,1.4-5.31,1.53-1.75.12-3.52-.27-5.31-1.16-2.36-1.14-4.13-2.75-5.31-4.82-1.18-2.07-1.53-4.66-1.04-7.75.32-2.12.61-3.95.85-5.49.24-1.54.53-3.03.85-4.45.32-1.42.71-2.85,1.16-4.27.45-1.42,1-3.11,1.65-5.06Zm2.2-6.71c2.03-5.29,3.84-9.54,5.43-12.75,1.59-3.21,2.87-5.92,3.84-8.11,3.17-7.16,6.83-13.99,10.98-20.5,4.15-6.51,8.66-12.81,13.54-18.91,1.14-1.38,2.4-2.7,3.78-3.96,1.38-1.26,2.76-2.46,4.15-3.6,2.6-2.2,5.49-2.64,8.66-1.34.65.24,1.06.79,1.22,1.65.16.85-.04,1.49-.61,1.89l-.55.55c-.2.2-.43.35-.67.43-2.52.65-4.66,1.79-6.41,3.42-1.75,1.63-3.35,3.38-4.82,5.25-2.12,2.68-4.15,5.39-6.1,8.11-1.95,2.73-3.86,5.51-5.73,8.36-5.37,8.46-9.96,17.2-13.79,26.23-3.82,9.03-7.2,18.3-10.13,27.82-.65,1.87-1.12,3.78-1.4,5.73-.29,1.95-.59,3.9-.92,5.86-.16,1.38-.12,2.76.12,4.15.24,1.38,1.06,2.68,2.44,3.9.73-.16,1.5-.35,2.32-.55.81-.2,1.54-.51,2.2-.92,1.14-.81,2.26-1.67,3.36-2.56,1.1-.9,2.09-1.87,2.99-2.93,9.68-10.17,18.81-20.72,27.39-31.66,8.58-10.94,16.65-22.34,24.22-34.22,2.28-3.58,4.43-7.22,6.47-10.92,2.03-3.7,3.98-7.42,5.86-11.16,3.66-7.24,5.37-14.88,5.12-22.94-.16-3.66-1-6.28-2.5-7.87-1.51-1.59-4.13-2.58-7.87-2.99-3.01-.24-5.96-.12-8.84.37-2.89.49-5.67,1.42-8.36,2.81-1.63.9-3.25,1.77-4.88,2.62-1.63.85-3.13,1.85-4.51,2.99-9.52,7.32-17.83,15.52-24.95,24.58-7.12,9.07-13.48,18.89-19.09,29.46-.81,1.46-1.61,3.29-2.38,5.49-.77,2.2-1.32,4.11-1.65,5.73-.49,2.52-.77,4.74-.85,6.65-.08,1.91,0,3.66.24,5.25s.61,3.05,1.1,4.39c.49,1.34,1.02,2.75,1.59,4.21Z"/>
      <path d="m522.67,131.1c1.14-.73,2.21-1.42,3.23-2.07,1.02-.65,2.05-1.22,3.11-1.71,1.38-.65,2.89-.89,4.51-.73.98,0,1.69.47,2.13,1.4.45.94.43,1.81-.06,2.62-.81,1.14-1.77,2.22-2.87,3.23-1.1,1.02-1.85,2.38-2.26,4.09,1.14.9,2.3,1.46,3.48,1.71,1.18.24,2.42.37,3.72.37,2.85-.08,5.57-.47,8.17-1.16,2.6-.69,5.16-1.57,7.69-2.62,2.2-.89,3.98-1.67,5.37-2.32,1.38-.65,2.28-1.06,2.68-1.22.57-.16,1.12-.14,1.65.06.53.2.96.49,1.28.85.32.37.51.75.55,1.16.04.41-.1.73-.43.98-2.85,1.87-5.65,3.52-8.42,4.94-2.77,1.42-5.57,2.48-8.42,3.17-2.85.69-5.82,1-8.91.92-3.09-.08-6.39-.73-9.88-1.95-.24-.16-.53-.22-.85-.18-.33.04-.73.06-1.22.06-.41.65-.9,1.3-1.46,1.95-.57.65-1.06,1.38-1.46,2.2-.73,1.38-1.42,2.79-2.07,4.21-.65,1.42-1.3,2.83-1.95,4.21-.65,1.38-1.67,2.07-3.05,2.07-.9-.08-1.81-.41-2.75-.98-.93-.57-1.44-1.22-1.53-1.95-.08-1.38-.14-2.81-.18-4.27-.04-1.46.02-2.89.18-4.27.57-3.74,1.14-7.14,1.71-10.19.57-3.05,1.18-6,1.83-8.84,2.03-9.68,4.11-19.05,6.22-28.12,2.11-9.07,4.31-18.12,6.59-27.15.57-2.03,1.16-4.03,1.77-5.98.61-1.95,1.32-3.9,2.13-5.86.49-1.38,1.2-2.34,2.13-2.87.93-.53,2.05-.71,3.36-.55,1.38.16,2.6.61,3.66,1.34,1.06.73,1.71,1.79,1.95,3.17.16,1.14.26,2.32.3,3.54.04,1.22-.02,2.4-.18,3.54-.33,1.63-.69,3.25-1.1,4.88-.41,1.63-.94,3.25-1.59,4.88-1.71,4.8-3.56,9.54-5.55,14.21-1.99,4.68-4.29,9.21-6.89,13.6-1.14,1.87-2.05,3.76-2.75,5.67-.69,1.91-1.24,3.89-1.65,5.92-.41,1.87-.77,3.68-1.1,5.43-.33,1.75-.69,3.56-1.1,5.43-.24,1.06-.37,1.93-.37,2.62s.2.88.61.55Zm11.96-51.49c-.24.08-.53.29-.85.61.16-.16.28-.3.37-.43.08-.12.2-.26.37-.43v-.61c.08-.16.1-.28.06-.37-.04-.08-.06-.16-.06-.24,0,.65.04,1.14.12,1.46Z"/>
      <path d="m625.76,132.56c.41,0,.65.1.73.3.08.2.08.47,0,.79-.08.33-.2.61-.37.85-.16.24-.29.41-.37.49-.41.41-.83.77-1.28,1.1-.45.33-.92.57-1.4.73-5.29,1.63-10.55,3.19-15.8,4.7-5.25,1.51-10.51,3.03-15.8,4.58-5.12,1.55-9.92,1.14-14.4-1.22-.98,1.14-1.87,2.18-2.68,3.11-.81.94-1.67,1.85-2.56,2.75-1.95,1.87-3.99,2.97-6.1,3.29-2.12.33-4.19-.16-6.22-1.46-3.74-2.28-5.61-5.57-5.61-9.88,0-1.63.14-3.27.43-4.94.29-1.67.55-3.31.79-4.94.16-.89.61-1.57,1.34-2.01.73-.45,1.54-.63,2.44-.55.89.16,1.65.49,2.26.98.61.49.83,1.1.67,1.83-.16,1.06-.37,2.07-.61,3.05-.24.98-.49,1.99-.73,3.05-.16.98-.24,1.99-.24,3.05s.1,2.06.3,2.99c.2.94.55,1.75,1.04,2.44.49.69,1.14,1.16,1.95,1.4.73.16,1.44-.04,2.14-.61.69-.57,1.28-1.14,1.77-1.71.81-.98,1.53-1.97,2.13-2.99.61-1.02,1.24-2.09,1.89-3.23.65-1.3,1.28-2.6,1.89-3.9.61-1.3,1.24-2.6,1.89-3.9,1.46-.16,2.6-.24,3.42-.24s1.42.12,1.83.37c.41.24.67.65.79,1.22.12.57.22,1.38.3,2.44.08.41.08.77,0,1.1-.08.33-.08.69,0,1.1.41,2.77,1.99,3.99,4.76,3.66,1.71-.24,3.44-.55,5.19-.92,1.75-.37,3.48-.75,5.18-1.16,3.42-.89,6.83-1.83,10.25-2.81,3.42-.98,6.87-1.91,10.37-2.81,1.3-.41,2.62-.75,3.96-1.04,1.34-.28,2.83-.63,4.45-1.04Z"/>
      <path d="m627.71,152.21c2.2-.81,4.74-2.03,7.62-3.66,2.89-1.63,6.32-3.62,10.31-5.98,1.54-.89,3.48-2.2,5.79-3.9s4.49-3.37,6.53-5c.65-.41,1.56-.73,2.75-.98,1.18-.24,2.01-.16,2.5.24.65.57.57,1.46-.24,2.68-.81,1.22-1.83,2.32-3.05,3.29-1.95,1.46-3.6,2.64-4.94,3.54-1.34.9-2.56,1.69-3.66,2.38-1.1.69-2.18,1.34-3.23,1.95-1.06.61-2.28,1.28-3.66,2.01-2.93,1.55-5.55,2.95-7.87,4.21-2.32,1.26-4.41,2.38-6.28,3.35.41.98.65,1.67.73,2.07.08.41.32,1.06.73,1.95,1.79,5.12.61,10.04-3.54,14.76-3.99,4.64-8.83,6.63-14.52,5.98-2.2-.24-3.86-1.16-5-2.75-1.14-1.59-1.5-3.52-1.1-5.79.41-2.03,1.1-3.92,2.07-5.67.98-1.75,2.2-3.44,3.66-5.06,1.3-1.46,2.73-2.72,4.27-3.78,1.54-1.06,3.05-2.32,4.51-3.78-.49-.89-1.02-1.89-1.59-2.99-.57-1.1-1.1-2.05-1.59-2.87-1.06-1.79-1.85-3.29-2.38-4.51-.53-1.22-1-2.48-1.4-3.78-.41-1.46-.41-2.89,0-4.27.41-1.38,1.06-2.76,1.95-4.15,1.71-2.36,3.9-4.51,6.59-6.47s5.33-3.66,7.93-5.12c.65-.32,1.42-.53,2.32-.61.89-.08,1.77.12,2.62.61.85.49,1.54,1.26,2.07,2.32.53,1.06.75,2.48.67,4.27-.16.49-.47.83-.92,1.04-.45.2-1.28.39-2.5.55-1.22.16-2.48.16-3.78,0-1.3-.16-2.56.29-3.78,1.34-3.17,2.6-4.84,5.92-5,9.94-.16,4.03,1.3,8.24,4.39,12.63Zm-2.81,7.56c-1.46,1.22-2.89,2.38-4.27,3.48-1.38,1.1-2.62,2.26-3.72,3.48-1.1,1.22-2.01,2.56-2.75,4.03-.73,1.46-1.14,3.17-1.22,5.12,2.6.41,4.76.08,6.47-.98,1.71-1.06,3.25-2.52,4.64-4.39,1.54-2.03,2.42-3.82,2.62-5.37.2-1.54-.39-3.33-1.77-5.37Z"/>
      <path d="m661.26,131.1c1.14-.73,2.21-1.42,3.23-2.07,1.02-.65,2.05-1.22,3.11-1.71,1.38-.65,2.89-.89,4.51-.73.98,0,1.69.47,2.13,1.4.45.94.43,1.81-.06,2.62-.81,1.14-1.77,2.22-2.87,3.23-1.1,1.02-1.85,2.38-2.26,4.09,1.14.9,2.3,1.46,3.48,1.71,1.18.24,2.42.37,3.72.37,2.85-.08,5.57-.47,8.17-1.16,2.6-.69,5.16-1.57,7.69-2.62,2.2-.89,3.98-1.67,5.37-2.32,1.38-.65,2.28-1.06,2.68-1.22.57-.16,1.12-.14,1.65.06.53.2.96.49,1.28.85.32.37.51.75.55,1.16.04.41-.1.73-.43.98-2.85,1.87-5.65,3.52-8.42,4.94-2.77,1.42-5.57,2.48-8.42,3.17-2.85.69-5.82,1-8.91.92-3.09-.08-6.39-.73-9.88-1.95-.24-.16-.53-.22-.85-.18-.33.04-.73.06-1.22.06-.41.65-.9,1.3-1.46,1.95-.57.65-1.06,1.38-1.46,2.2-.73,1.38-1.42,2.79-2.07,4.21-.65,1.42-1.3,2.83-1.95,4.21-.65,1.38-1.67,2.07-3.05,2.07-.9-.08-1.81-.41-2.75-.98-.93-.57-1.44-1.22-1.53-1.95-.08-1.38-.14-2.81-.18-4.27-.04-1.46.02-2.89.18-4.27.57-3.74,1.14-7.14,1.71-10.19.57-3.05,1.18-6,1.83-8.84,2.03-9.68,4.11-19.05,6.22-28.12,2.11-9.07,4.31-18.12,6.59-27.15.57-2.03,1.16-4.03,1.77-5.98.61-1.95,1.32-3.9,2.13-5.86.49-1.38,1.2-2.34,2.13-2.87.93-.53,2.05-.71,3.36-.55,1.38.16,2.6.61,3.66,1.34,1.06.73,1.71,1.79,1.95,3.17.16,1.14.26,2.32.3,3.54.04,1.22-.02,2.4-.18,3.54-.33,1.63-.69,3.25-1.1,4.88-.41,1.63-.94,3.25-1.59,4.88-1.71,4.8-3.56,9.54-5.55,14.21-1.99,4.68-4.29,9.21-6.89,13.6-1.14,1.87-2.05,3.76-2.75,5.67-.69,1.91-1.24,3.89-1.65,5.92-.41,1.87-.77,3.68-1.1,5.43-.33,1.75-.69,3.56-1.1,5.43-.24,1.06-.37,1.93-.37,2.62s.2.88.61.55Zm11.96-51.49c-.24.08-.53.29-.85.61.16-.16.28-.3.37-.43.08-.12.2-.26.37-.43v-.61c.08-.16.1-.28.06-.37-.04-.08-.06-.16-.06-.24,0,.65.04,1.14.12,1.46Z"/>
      <path d="m719.7,139.88c-1.3,4.47-3.07,7.89-5.31,10.25-2.24,2.36-5.31,4.19-9.21,5.49-2.85.9-5.51.67-7.99-.67-2.48-1.34-4.17-3.44-5.06-6.28-.89-2.44-.65-4.68.73-6.71,1.46-2.85,1.54-5.49.24-7.93-.08-.57.1-1.04.55-1.4.45-.37,1.04-.61,1.77-.73.73-.12,1.48-.18,2.26-.18h2.01c1.95.16,3.9.35,5.86.55,1.95.2,3.86.63,5.73,1.28,2.85.9,5.69,1.42,8.54,1.59,2.85.16,5.69.08,8.54-.24,1.71-.16,3.29-.34,4.76-.55,1.46-.2,3.21-.55,5.25-1.04.41-.08.93-.2,1.59-.37.65-.16,1.3-.28,1.95-.37.65-.08,1.22-.08,1.71,0,.49.08.77.29.85.61.32.81.14,1.49-.55,2.01-.69.53-1.2.88-1.53,1.04-1.14.41-2.16.75-3.05,1.04-.9.29-1.75.53-2.56.73-.81.2-1.67.41-2.56.61-.9.2-1.95.39-3.17.55-1.38.16-3.19.33-5.43.49-2.24.16-4.21.24-5.92.24Zm-17.45-.98c-.73.49-1.36,1.14-1.89,1.95-.53.81-.96,1.73-1.28,2.75-.33,1.02-.51,2.07-.55,3.17-.04,1.1.06,2.18.3,3.23,1.63.9,3.03,1.08,4.21.55,1.18-.53,2.34-1.12,3.48-1.77,1.63-.89,2.83-1.97,3.6-3.23.77-1.26,1.48-2.95,2.14-5.06-2.12-.98-4.09-1.59-5.92-1.83s-3.19-.16-4.09.24Z"/>
      <path d="m741.29,149.28c.98-1.38,1.73-2.81,2.26-4.27.53-1.46,1.02-2.89,1.46-4.27.45-1.38.92-2.76,1.4-4.15.49-1.38,1.14-2.68,1.95-3.9,2.44-1.79,4.64-1.91,6.59-.37,3.42,2.44,7.03,3.66,10.86,3.66s7.77-.45,11.83-1.34c1.71-.41,3.4-.77,5.06-1.1,1.67-.32,3.31-.65,4.94-.98.57,0,.93.14,1.1.43.16.29.16.61,0,.98-.16.37-.45.73-.85,1.1-.41.37-.85.63-1.34.79-4.64,1.63-9.21,2.85-13.73,3.66-4.51.81-9.09.61-13.72-.61-.81-.16-1.59-.32-2.32-.49-.73-.16-1.51-.32-2.32-.49-.16,0-.45-.02-.85-.06-.41-.04-.69.06-.85.31-.41.41-.83,1.02-1.28,1.83-.45.81-.79,1.63-1.04,2.44-.9,2.85-1.71,5.73-2.44,8.66-.73,2.93-1.42,5.86-2.07,8.78-.41,1.79-1.26,2.85-2.56,3.17-1.3.33-2.44.12-3.42-.61-1.06-.81-1.83-1.75-2.32-2.81-1.14-2.44-2.1-4.98-2.87-7.62-.77-2.64-1.08-5.39-.92-8.24.16-2.6.49-5.16.98-7.69.49-2.52.98-5.04,1.46-7.56.16-.89.61-1.57,1.34-2.01.73-.45,1.5-.59,2.32-.43,1.87.41,2.68,1.46,2.44,3.17-.08.9-.26,1.77-.55,2.62-.29.85-.51,1.73-.67,2.62-.24,1.3-.43,2.42-.55,3.35-.12.94-.23,1.81-.31,2.62-.08.81-.14,1.65-.18,2.5-.04.85-.06,1.85-.06,2.99v.98c0,.41.04.79.12,1.16.08.37.2.67.37.92.16.24.41.33.73.24Z"/>
    </g>
  </g>
</svg>